<svg xmlns="http://www.w3.org/2000/svg" xmlns:xlink="http://www.w3.org/1999/xlink" version="1.1" data-diagram-type="SEQUENCE" style="width:1532px;height:742px;background:#FFFFFF;" width="1532px" height="742px" viewBox="0 0 1532 742" zoomAndPan="magnify" preserveAspectRatio="none" contentStyleType="text/css"><?plantuml 1.2026.9beta4?><defs/><g font-family="sans-serif" lengthAdjust="spacing"><g><title>........</title><rect x="48.435" y="57.594" width="8" height="673.922" fill="#000" fill-opacity="0"/><line x1="51.935" y1="57.594" x2="51.935" y2="731.516" style="stroke:#181818;stroke-width:0.5;stroke-dasharray:5,5;"/></g><g><title>.........</title><rect x="258.339" y="57.594" width="8" height="673.922" fill="#000" fill-opacity="0"/><line x1="261.839" y1="57.594" x2="261.839" y2="731.516" style="stroke:#181818;stroke-width:0.5;stroke-dasharray:5,5;"/></g><g><title>.....</title><rect x="545.113" y="57.594" width="8" height="673.922" fill="#000" fill-opacity="0"/><line x1="548.613" y1="57.594" x2="548.613" y2="731.516" style="stroke:#181818;stroke-width:0.5;stroke-dasharray:5,5;"/></g><g><title>.........</title><rect x="870.36" y="57.594" width="8" height="673.922" fill="#000" fill-opacity="0"/><line x1="873.86" y1="57.594" x2="873.86" y2="731.516" style="stroke:#181818;stroke-width:0.5;stroke-dasharray:5,5;"/></g><g><title>...........</title><rect x="1069.193" y="57.594" width="8" height="673.922" fill="#000" fill-opacity="0"/><line x1="1072.693" y1="57.594" x2="1072.693" y2="731.516" style="stroke:#181818;stroke-width:0.5;stroke-dasharray:5,5;"/></g><g><title>......</title><rect x="1171.868" y="57.594" width="8" height="673.922" fill="#000" fill-opacity="0"/><line x1="1175.368" y1="57.594" x2="1175.368" y2="731.516" style="stroke:#181818;stroke-width:0.5;stroke-dasharray:5,5;"/></g><rect x="10" y="10" width="83.87" height="46.594" fill="#E2E2F0" style="stroke:#181818;stroke-width:0.5;" rx="2.5" ry="2.5"/><text x="17" y="29.995" fill="#000" font-size="14" textLength="69.87">Источник</text><text x="17.841" y="46.292" fill="#000" font-size="14" textLength="68.188">(ИБ, И32)</text><rect x="211.314" y="10" width="101.049" height="46.594" fill="#E2E2F0" style="stroke:#181818;stroke-width:0.5;" rx="2.5" ry="2.5"/><text x="222.125" y="29.995" fill="#000" font-size="14" textLength="79.427">Диспетчер</text><text x="218.314" y="46.292" fill="#000" font-size="14" textLength="87.049">Постановки</text><rect x="512.868" y="10" width="71.49" height="46.594" fill="#E2E2F0" style="stroke:#181818;stroke-width:0.5;" rx="2.5" ry="2.5"/><text x="524.933" y="29.995" fill="#000" font-size="14" textLength="47.359">Буфер</text><text x="519.868" y="46.292" fill="#000" font-size="14" textLength="57.49">(Д1031)</text><rect x="827.146" y="10" width="93.427" height="46.594" fill="#E2E2F0" style="stroke:#181818;stroke-width:0.5;" rx="2.5" ry="2.5"/><text x="834.146" y="29.995" fill="#000" font-size="14" textLength="79.427">Диспетчер</text><text x="846.198" y="46.292" fill="#000" font-size="14" textLength="55.323">Выбора</text><rect x="1014.318" y="10" width="116.751" height="46.594" fill="#E2E2F0" style="stroke:#181818;stroke-width:0.5;" rx="2.5" ry="2.5"/><text x="1021.318" y="29.995" fill="#000" font-size="14" textLength="102.751">Планировщик</text><text x="1036.986" y="46.292" fill="#000" font-size="14" textLength="71.415">Приборов</text><rect x="1141.069" y="10" width="68.599" height="46.594" fill="#E2E2F0" style="stroke:#181818;stroke-width:0.5;" rx="2.5" ry="2.5"/><text x="1148.069" y="29.995" fill="#000" font-size="14" textLength="54.599">Прибор</text><text x="1155.735" y="46.292" fill="#000" font-size="14" textLength="39.266">(П31)</text><polygon points="249.839,82.727,259.839,86.727,249.839,90.727" fill="#181818" style="stroke:#181818;stroke-width:1;stroke-linejoin:miter;stroke-miterlimit:10;"/><line x1="51.935" y1="86.727" x2="255.839" y2="86.727" style="stroke:#181818;stroke-width:1;"/><text x="63.935" y="81.661" fill="#000" font-size="13" textLength="185.904">Новая заявка (транзакция)</text><path d="M266.839,99.727 L266.839,139.727 L535.839,139.727 L535.839,109.727 L525.839,99.727 L266.839,99.727" style="stroke:#181818;stroke-width:0.5;" fill="#FEFFDD"/><path d="M525.839,99.727 L525.839,109.727 L535.839,109.727 L525.839,99.727" style="stroke:#181818;stroke-width:0.5;" fill="#FEFFDD"/><text x="272.839" y="116.793" fill="#000" font-size="13" textLength="248.708">И32: Равномерный закон генерации</text><text x="272.839" y="131.926" fill="#000" font-size="13" textLength="162.379">ИБ: Бесконечный поток</text><polygon points="536.613,162.125,546.613,166.125,536.613,170.125" fill="#181818" style="stroke:#181818;stroke-width:1;stroke-linejoin:miter;stroke-miterlimit:10;"/><line x1="261.839" y1="166.125" x2="542.613" y2="166.125" style="stroke:#181818;stroke-width:1;"/><text x="273.839" y="161.059" fill="#000" font-size="13" textLength="262.774">Проверить наличие свободного места</text><path d="M553.613,179.125 L553.613,219.125 L796.613,219.125 L796.613,189.125 L786.613,179.125 L553.613,179.125" style="stroke:#181818;stroke-width:0.5;" fill="#FEFFDD"/><path d="M786.613,179.125 L786.613,189.125 L796.613,189.125 L786.613,179.125" style="stroke:#181818;stroke-width:0.5;" fill="#FEFFDD"/><text x="559.613" y="196.192" fill="#000" font-size="13" textLength="222.549">Д1031: Поиск места "по кольцу"</text><text x="559.613" y="211.325" fill="#000" font-size="13" textLength="218.702">(от последнего занятого слота)</text><polygon points="272.839,241.523,262.839,245.523,272.839,249.523" fill="#181818" style="stroke:#181818;stroke-width:1;stroke-linejoin:miter;stroke-miterlimit:10;"/><line x1="266.839" y1="245.523" x2="547.613" y2="245.523" style="stroke:#181818;stroke-width:1;stroke-dasharray:2,2;"/><text x="285.068" y="240.458" fill="#000" font-size="13" textLength="240.316">Свободное место найдено (слот N)</text><polygon points="536.613,270.656,546.613,274.656,536.613,278.656" fill="#181818" style="stroke:#181818;stroke-width:1;stroke-linejoin:miter;stroke-miterlimit:10;"/><line x1="261.839" y1="274.656" x2="542.613" y2="274.656" style="stroke:#181818;stroke-width:1;"/><text x="337.423" y="269.59" fill="#000" font-size="13" textLength="135.605">addRequest(Заявка)</text><polygon points="272.839,299.789,262.839,303.789,272.839,307.789" fill="#181818" style="stroke:#181818;stroke-width:1;stroke-linejoin:miter;stroke-miterlimit:10;"/><line x1="266.839" y1="303.789" x2="547.613" y2="303.789" style="stroke:#181818;stroke-width:1;stroke-dasharray:2,2;"/><text x="342.679" y="298.723" fill="#000" font-size="13" textLength="125.093">Заявка добавлена</text><rect x="10" y="332.355" width="1511.891" height="3" fill="#EEE" style="stroke:#EEE;stroke-width:1;"/><line x1="10" y1="332.355" x2="1521.891" y2="332.355" style="stroke:#000;stroke-width:1;"/><line x1="10" y1="335.355" x2="1521.891" y2="335.355" style="stroke:#000;stroke-width:1;"/><rect x="640.59" y="321.789" width="250.71" height="23.133" fill="#EEE" style="stroke:#000;stroke-width:2;"/><text x="646.59" y="337.856" fill="#000" font-size="13" textLength="232.185" font-weight="700">Прибор освободился (триггер)</text><polygon points="884.86,372.055,874.86,376.055,884.86,380.055" fill="#181818" style="stroke:#181818;stroke-width:1;stroke-linejoin:miter;stroke-miterlimit:10;"/><line x1="878.86" y1="376.055" x2="1174.368" y2="376.055" style="stroke:#181818;stroke-width:1;"/><text x="965.089" y="370.989" fill="#000" font-size="13" textLength="119.05">Прибор свободен</text><path d="M878.86,389.055 L878.86,414.055 L1133.86,414.055 L1133.86,399.055 L1123.86,389.055 L878.86,389.055" style="stroke:#181818;stroke-width:0.5;" fill="#FEFFDD"/><path d="M1123.86,389.055 L1123.86,399.055 L1133.86,399.055 L1123.86,389.055" style="stroke:#181818;stroke-width:0.5;" fill="#FEFFDD"/><text x="884.86" y="406.122" fill="#000" font-size="13" textLength="234.908">Д2П2: Выбор прибора "по кольцу"</text><polygon points="559.613,436.32,549.613,440.32,559.613,444.32" fill="#181818" style="stroke:#181818;stroke-width:1;stroke-linejoin:miter;stroke-miterlimit:10;"/><line x1="553.613" y1="440.32" x2="872.86" y2="440.32" style="stroke:#181818;stroke-width:1;"/><text x="660.157" y="435.254" fill="#000" font-size="13" textLength="102.159">selectRequest()</text><path d="M878.86,453.32 L878.86,493.32 L1168.86,493.32 L1168.86,463.32 L1158.86,453.32 L878.86,453.32" style="stroke:#181818;stroke-width:0.5;" fill="#FEFFDD"/><path d="M1158.86,453.32 L1158.86,463.32 L1168.86,463.32 L1158.86,453.32" style="stroke:#181818;stroke-width:0.5;" fill="#FEFFDD"/><text x="884.86" y="470.387" fill="#000" font-size="13" textLength="269.026">Д2Б4: Приоритет по номеру источника</text><text x="884.86" y="485.52" fill="#000" font-size="13" textLength="122.916">(по одной заявке)</text><polygon points="861.86,515.719,871.86,519.719,861.86,523.719" fill="#181818" style="stroke:#181818;stroke-width:1;stroke-linejoin:miter;stroke-miterlimit:10;"/><line x1="548.613" y1="519.719" x2="867.86" y2="519.719" style="stroke:#181818;stroke-width:1;stroke-dasharray:2,2;"/><text x="560.613" y="514.653" fill="#000" font-size="13" textLength="301.247">Возвращаем заявку с высшим приоритетом</text><polygon points="1060.693,544.852,1070.693,548.852,1060.693,552.852" fill="#181818" style="stroke:#181818;stroke-width:1;stroke-linejoin:miter;stroke-miterlimit:10;"/><line x1="873.86" y1="548.852" x2="1066.693" y2="548.852" style="stroke:#181818;stroke-width:1;"/><text x="885.86" y="543.786" fill="#000" font-size="13" textLength="174.833">Найти свободный прибор</text><polygon points="884.86,573.984,874.86,577.984,884.86,581.984" fill="#181818" style="stroke:#181818;stroke-width:1;stroke-linejoin:miter;stroke-miterlimit:10;"/><line x1="878.86" y1="577.984" x2="1071.693" y2="577.984" style="stroke:#181818;stroke-width:1;stroke-dasharray:2,2;"/><text x="900.79" y="572.918" fill="#000" font-size="13" textLength="144.974">Прибор №1 свободен</text><polygon points="1163.368,603.117,1173.368,607.117,1163.368,611.117" fill="#181818" style="stroke:#181818;stroke-width:1;stroke-linejoin:miter;stroke-miterlimit:10;"/><line x1="873.86" y1="607.117" x2="1169.368" y2="607.117" style="stroke:#181818;stroke-width:1;"/><text x="943.926" y="602.051" fill="#000" font-size="13" textLength="161.376">processRequest(Заявка)</text><line x1="1175.368" y1="636.25" x2="1217.368" y2="636.25" style="stroke:#181818;stroke-width:1;"/><line x1="1217.368" y1="636.25" x2="1217.368" y2="649.25" style="stroke:#181818;stroke-width:1;"/><line x1="1176.368" y1="649.25" x2="1217.368" y2="649.25" style="stroke:#181818;stroke-width:1;"/><polygon points="1186.368,645.25,1176.368,649.25,1186.368,653.25" fill="#181818" style="stroke:#181818;stroke-width:1;stroke-linejoin:miter;stroke-miterlimit:10;"/><text x="1182.368" y="631.184" fill="#000" font-size="13" textLength="158.729">Обработка транзакции</text><path d="M1180.368,662.25 L1180.368,687.25 L1516.368,687.25 L1516.368,672.25 L1506.368,662.25 L1180.368,662.25" style="stroke:#181818;stroke-width:0.5;" fill="#FEFFDD"/><path d="M1506.368,662.25 L1506.368,672.25 L1516.368,672.25 L1506.368,662.25" style="stroke:#181818;stroke-width:0.5;" fill="#FEFFDD"/><text x="1186.368" y="679.317" fill="#000" font-size="13" textLength="315.523">П31: Экспоненциальное время обслуживания</text><polygon points="884.86,709.516,874.86,713.516,884.86,717.516" fill="#181818" style="stroke:#181818;stroke-width:1;stroke-linejoin:miter;stroke-miterlimit:10;"/><line x1="878.86" y1="713.516" x2="1174.368" y2="713.516" style="stroke:#181818;stroke-width:1;stroke-dasharray:2,2;"/><text x="895.646" y="708.45" fill="#000" font-size="13" textLength="257.937">Заявка обработана, прибор свободен</text><?plantuml-src XLLDJzj04BtxLwmunH981Nf2IgLMN5jLxPLBP1Qm6fmqTYhrHWY28f2Y8DHoQTF-W4ecrCK4Olx2x5_eB-cRtVWp82v9s9rvy-QzcSN_u7hjHgUnA_pWSrFYi-CwGNUtQVdvZVpObPuZNqlVRspBbqrtsnEEz0BPiIo41AxZjXjU81ReGlNKFYNgYAOKqsJ3gz453HS5NQoks0kYuOlthMx7aPMqSufLZ-ufKlj8ZTJUXaSZm31O2AY4nZIXM0EyRJOSkUxwxGh6KFNLWScjqVdoizLbK_1LTsiBH9ykUAPEw195zoWqJ6LJEi43bKPqgrd520KpTMnQfH7-ZcSGE3SWpexSx3Rd21HYcUyePRikFxcGnp8oYQKNURzhWhvh9K8r47JDNrgMKDJGnPwcX5EQg4DG6zYMrmgawBZREu5eRPLmu0O-Vo9uhDMzOmbe2W5kXC70uLJG5KMuvxkGGIb6b_0JkKESzamOVXsbkVTe2FxJnBAoUjo4CG5v8wEDnen1-rG088IWCK1YYWHGnuY0ClH7SxkYH6Y2UXWgJMMusd36HmPREodaGEvx1c6sj-fK7Qh-0eiEgePn3_KZNIuovLY2gHheLlX0Ht1deMrPfgPOgdZpgy8xoXaafiaRtB2U2GoR0OetzYDADJOtt_7U-K6DlkLUsu-LByG8r64cxEwjhXXQLhqkYaCdTDivunZAz31NPfHYT7t57jcYNhSiCvJCBj-9jJ9S2GmbApwLyivNQCJpboqSN2YipeD-OICoYA9ClZvDbRAVA3jydj5Ep03o2o1CkMmHL5_m31KVCWfvO7HOwkzDSGUZyboKwfuX-1hF12_HCKo9wAwGYcAg9t1zWefVKEikLQF0a9bL5SXU5lqkOBeG5bVMPxQKkRXMbZNFisZdluElo_EULXYOiLWJxKxBmR-6XyUrC3nfFFsWI_rUNUgTuecTVy0ehdYPPO_qelz66B_W-W52fvmIyhYaoyU2Gsf-Az43Bvpgqrz4ZMUFzo3dLfMYj4n9YItdXeibKUU4-Wy0?></g></svg>